<?xml version="1.0" encoding="UTF-8" standalone="no"?><!DOCTYPE svg PUBLIC "-//W3C//DTD SVG 1.1//EN" "http://www.w3.org/Graphics/SVG/1.1/DTD/svg11.dtd"><svg width="100%" height="100%" viewBox="0 0 5225 5225" version="1.1" xmlns="http://www.w3.org/2000/svg" xmlns:xlink="http://www.w3.org/1999/xlink" xml:space="preserve" xmlns:serif="http://www.serif.com/" style="fill-rule:evenodd;clip-rule:evenodd;stroke-linecap:round;stroke-linejoin:round;stroke-miterlimit:1.5;"><g id="背景"><path d="M956.203,1899.146c7.347,39.134 2.724,38.521 3.026,78.872c-11.855,41.669 -12.633,42.26 1.731,82.883c12.789,46.147 17.012,43.802 42.581,83.585c5.488,8.54 0.526,569.784 2.743,579.109c3.445,14.491 9.56,9.485 186.054,7.114c26.751,-0.359 -2.152,-343.053 17.075,-416.95c57.089,-219.416 351.606,-124.394 541.455,-147.839c4.962,2.359 4.586,2.754 270.26,2.425c198.543,-0.246 209.585,-9.803 288.936,70.343c405.397,409.458 423.138,412.7 433.524,476.704c11.147,68.698 1.186,882.648 0.247,959.394c-4.779,390.545 14.957,429.63 -86.937,508.876c-65.233,50.734 -74.996,34.857 -1023.985,37.422c-203.099,0.549 -359.408,25.317 -417.675,-132.322c-26.987,-73.011 -4.483,-1230.914 -12.036,-1278.161c-1.639,-10.25 -7.777,-7.211 -381.613,-7.358c-410.382,-0.161 -426.685,5.132 -430.636,-27.258c-6.249,-51.233 43.984,-44.871 46.099,-45.329c10.509,-2.275 2.373,-526.742 5.335,-713.411c1.195,-75.291 104.369,-46.785 231.325,-50.988c3.966,-0.131 2.428,-1.441 6.002,-27.294c6.59,-47.674 36.517,-39.525 276.491,-39.818Zm352.368,418.292c-12.581,35.952 -10.014,36.96 -11.257,1518.752c-0.186,221.227 -20.276,291.665 165.482,291.709c1099.156,0.264 1102.05,1.648 1130.094,-16.353c63.385,-40.685 52.52,-57.285 54.085,-541.428c2.591,-801.217 8.962,-815.151 -10.812,-815.451c-259.539,-3.938 -433.512,36.828 -470.087,-131.343c-12.317,-56.634 5.827,-359.037 -9.818,-361.515c-2.947,-0.467 -759.301,-0.704 -767.573,0.22c-47.754,5.333 -75.886,48.864 -80.116,55.409Zm1226.624,280.57c-262.865,-263.555 -280.098,-297.91 -280.1,-266.955c-0.023,280.532 -16.966,330.011 93.192,330.323c19.176,0.054 239.089,0.676 239.698,0.57c13.866,-2.413 -49.046,-60.117 -52.791,-63.937Z" style="fill:#2d343e;fill-opacity:1;"/><path d="M3351.81,2222.532c80.03,-64.438 88.759,-54.934 383.579,-55.383c559.607,-0.852 559.231,6.032 562.717,7.045c24.91,7.233 30.595,8.883 238.636,219.498c273.987,277.377 293.64,273.884 297.651,365.093c0.421,9.573 0.045,1249.038 -0.076,1256.239c-2.632,155.682 -133.304,198.859 -165.703,203.374c-70.488,9.823 -70.644,3.121 -889.607,2.693c-285.687,-0.149 -409.476,23.535 -473.35,-119.609c-17.425,-39.049 -15.515,-40.93 -14.654,-1342.701c0.292,-440.547 -9.645,-450.754 60.808,-536.248Zm1034.328,151.633c-41.925,-42.612 -41.473,-42.529 -45.279,-46.021c-19.822,-18.185 -8.552,239.671 -7.641,260.5c4.267,97.636 122.523,73.642 318.198,74.755c47.072,0.268 -3.874,-25.222 -265.278,-289.234Zm-100.43,327.252c-71.574,-91.842 -40.042,-143.16 -46.121,-431.084c-0.292,-13.837 -9.852,-9.551 -473.671,-9.921c-267.864,-0.214 -380.057,-23.047 -381.685,110.154c-0.219,17.941 -1.28,1606.735 -0.981,1640.093c0.724,80.567 55.31,116.251 112.239,116.272c1166.702,0.429 1166.991,-4.146 1173.557,-6.719c83.35,-32.673 70.221,-86.336 70.119,-393.072c-0.32,-961.735 3.402,-971.167 -9.326,-971.323c-326.994,-4.01 -360.251,21.63 -444.132,-54.4Z" style="fill:#2d343e;fill-opacity:1;"/><path d="M1836.472,1498.173c-1.082,11.055 -1.114,10.463 0.008,21.797c0.411,42.431 -0.337,91.568 -0.062,178.862l-0.965,12.826c3.797,14.537 2.416,44.551 2.301,157.269c-4.402,19.62 -2.787,18.906 -2.224,39.008c5.912,23.469 -0.642,56.501 2.094,83.113c-1.944,6.653 -2.002,5.906 -1.093,13.073c-0.314,20.102 15.175,117.822 -85.664,161.799c-189.849,23.445 -484.366,-71.576 -541.455,147.839c-19.227,73.897 9.676,416.59 -17.075,416.95c-176.494,2.371 -182.608,7.377 -186.054,-7.114c-2.217,-9.326 2.745,-570.57 -2.743,-579.109c-25.568,-39.783 -29.792,-37.438 -42.581,-83.585c-0.347,-18.229 -1.55,-17.968 -1.731,-82.883c-0.302,-40.35 4.321,-39.738 -3.026,-78.872c11.988,-80.155 -22.706,-463.929 22.933,-531.526c47.406,-70.214 63.57,-61.704 453.124,-61.263c317.001,0.359 345.148,-15.704 394.01,82.089c12.691,25.401 11.748,73.113 10.202,109.726Zm-527.074,265.449c-115.402,131.176 -150.557,169.273 -151.197,183.907c-0.273,6.24 -2.968,67.861 13.232,76.942c11.529,6.463 12.569,5.118 417.851,5.155c37.724,0.003 51.892,-19.397 42.974,-77.655c-5.775,-37.724 -25.428,-18.325 -313.672,-20.626c-27.037,-0.216 3.977,-14.835 228.959,-274.561c38.226,-44.129 102.099,-91.064 81.488,-167.508c-7.175,-26.612 -18.995,-21.543 -375.613,-21.903c-12.929,-0.013 -85.677,-8.837 -86.932,26.47c-0.199,5.606 -2.181,61.367 8.555,69.593c27.66,21.192 317.479,-7.554 295.714,17.041l-49.195,55.589c-9.037,10.148 -8.34,10.127 -112.164,127.555Zm-217.376,650.023c-57.574,2.905 -29.781,30.979 -29.798,87.783c-0.012,41.038 -3.439,110.634 7.602,110.932c6.091,0.164 73.818,1.988 75.949,-5.814c0.436,-1.597 1.253,-184.076 -0.408,-188.446c-3.634,-9.56 -7.352,-4.249 -53.345,-4.454Z" style="fill:#d51a1b;fill-opacity:1;"/><path d="M1684.243,3708.801c-2.443,2.466 -76.53,101.818 -168.475,73.277c-63.149,-19.602 -113.552,-151.941 109.091,-254.084c50.025,-22.95 109.727,-38.788 117.716,-53.525c8.003,-14.761 145.205,-278.084 143.851,-288.229c-0.544,-4.077 -101.304,-175.029 -59.917,-309.126c37.16,-120.4 267.768,-129.542 184.173,190.909c-26.009,99.702 -45.61,101.977 -22.819,134.573c93.021,133.045 155.841,186.051 164.206,185.142c5.447,-0.592 294.167,-54.142 319.445,94.928c18.508,109.144 -137.482,166.052 -331.5,3.235c-28.544,-23.954 -33.121,-24.512 -192.671,11.934c-149.343,34.115 -152.871,40.136 -159.659,51.72c-42.668,72.824 -48.811,90.308 -103.44,159.245Zm269.852,-797.085c-1.377,-4.451 -2.831,-28.149 -20.705,-38.446c-79.133,-45.587 -23.221,261.86 -5.014,216.301c31.154,-77.957 26.501,-163.5 25.72,-177.855Zm-355.517,711.608c-6.553,5.273 -96.516,77.674 -52.942,90.834c50.729,15.321 155.294,-143.875 130.823,-132.089c-61.035,29.398 -61.798,32.735 -77.881,41.254Zm692.96,-174.187c-61.24,1.707 -60.864,1.409 -66.14,1.843c-23.357,1.925 105.469,83.714 162.341,62.85c8.707,-3.194 37.18,-52.115 -96.201,-64.693Zm-420.272,-58.654c-29.07,54.593 -30.185,57.841 -25.152,58.735c15.903,2.825 13.701,-11.226 196.879,-44.719c13.256,-2.424 -1.266,-8.443 -100.975,-134.834c-8.854,-11.224 -19.309,19.587 -70.752,120.818Z" style="fill:#d51719;"/><path d="M4570.995,3220.844c-50.372,180.453 -125.088,183.685 -360.148,181.418c-34.98,-0.337 -27.877,-19.351 -27.954,-307.598c-0.031,-116.15 -6.873,-173.292 19.301,-173.785c172.313,-3.244 404.602,-28.956 368.8,299.965Zm-96.338,-109.164c-28.897,-108.738 -89.143,-102.899 -185.23,-102.456c-17.525,0.081 -11.82,45.53 -11.834,59.252c-0.248,235.836 -2.221,244.211 11.76,244.408c142.77,2.014 201.21,-19.034 185.305,-201.205Z" style="fill:#2d343e;"/><path d="M740.297,2518.873c-0.002,-41.876 -0.024,-518.322 0.036,-523.456c0.333,-28.69 14.439,-27.076 190.293,-25.55c1.903,0.017 16.413,0.142 20.011,12.858c1.075,3.8 0.65,738.437 -0.381,741.9c-4.533,15.222 -10.734,7.918 -198.437,6.229c-15.023,-0.135 -11.525,-9.137 -11.522,-211.981Zm138.003,-315.65c-5.799,-0.006 -69.801,-0.076 -72.406,3.459c-4.457,6.048 -5.093,23.451 -3.574,59.38c0.86,20.344 90.48,18.275 94.236,4.433c16.59,-61.139 -12.764,-66.306 -18.256,-67.272Zm-52.362,210.114c-42.858,4.53 -23.498,23.617 -23.466,66.285c0.068,91.339 -4.367,133.047 10.504,133.346c6.617,0.133 81.886,1.645 82.439,-6.951c1.123,-17.445 0.877,-169.46 0.47,-183.12c-0.271,-9.097 -64.299,-9.522 -69.947,-9.56Z" style="fill:#bababa;"/><path d="M3710.415,3095.515c0.527,23.623 6.218,278.773 -2.116,295.351c-9.008,17.92 -91.381,23.163 -91.724,-12.663c-0.344,-35.912 -4.168,-435.245 6.043,-448.88c1.263,-1.686 81.102,-35.419 110.777,18.187c107.397,194.005 110.436,228.267 124.987,199.971c115.446,-224.507 121.635,-226.495 143.093,-226.935c6.314,-0.13 72.993,-1.497 77.876,12.939c0.493,1.457 8.212,450.231 -3.313,462.531c-0.714,0.762 -87.606,33.028 -88.172,-26.56c-2.375,-250.083 3.723,-292.779 -10.007,-263.053c-3.816,8.261 -96.651,174.576 -103.822,178.869c-11.655,6.978 -46.583,6.455 -53.714,-4.752c-104.676,-164.523 -92.547,-171.677 -103.568,-184.527c-1.38,-1.609 -4.96,1.13 -6.34,-0.479Z" style="fill:#2d343e;"/><path d="M655.804,2033.971c41.419,6.618 22.499,24.018 22.486,66.126c-0.197,617.813 -0.118,617.764 -0.308,623.875c-0.339,10.959 -168.758,10.877 -170.935,0.058c-4.592,-22.816 -1.201,-598.098 -0.894,-650.106c0.316,-53.645 33.655,-39.901 149.651,-39.952Z" style="fill:#636971;"/><path d="M4537.009,3622.463c-12.659,56.071 -34.659,45.402 -299.992,45.393c-612.544,-0.022 -617.827,2.184 -631.392,-15.807c-17.789,-23.594 -15.035,-73.073 38.213,-75.733c34.404,-1.719 746.393,-0.245 811.296,-0.111c33.33,0.069 71.664,-10.784 81.874,46.258Z" style="fill:#1067b3;"/><path d="M4194.282,3818.751c-9.655,54.616 -32.03,44.413 -323.676,44.398c-211.197,-0.011 -283.394,13.995 -274.448,-53.084c6.126,-45.934 27.45,-38.382 379.136,-38.498c183.517,-0.06 205.107,-12.114 218.988,47.185Z" style="fill:#1066b4;"/><path d="M552.656,2553.761c-0.276,-94.34 -1.874,-135.164 3.476,-138.554c4.26,-2.699 73.45,-2.611 77.081,0.088c8.616,6.403 3.23,171.69 2.744,186.613c-0.571,17.538 -61.779,11.196 -67.312,11.096c-26.611,-0.48 -13.735,-13.877 -15.989,-59.243Z" style="fill:#fafafa;"/><path d="M637.765,2230.983c-1.196,33.541 7.988,47.944 -25.557,48.097c-41.127,0.187 -62.538,19.429 -62.099,-21.916c0.38,-35.809 -16.843,-53.416 18.467,-53.878c45.888,-0.6 66.067,-17.84 69.189,27.698Z" style="fill:#f9f9f8;"/><path d="M959.229,1978.018c0.181,64.916 1.384,64.654 1.731,82.883c-14.364,-40.624 -13.586,-41.214 -1.731,-82.883Z" style="fill:#7a2f32;"/><path d="M1837.754,1868.928c-0.084,3.125 -0.66,2.188 -2.224,39.008c-0.563,-20.102 -2.178,-19.389 2.224,-39.008Z" style="fill:#814509;fill-opacity:0.41;"/><path d="M1836.472,1498.173l0.008,21.797c-1.122,-11.334 -1.09,-10.743 -0.008,-21.797Z" style="fill:#87470b;fill-opacity:0.39;"/><path d="M3250.63,3242.923c-1.406,5.786 -2.813,11.572 -4.219,17.359c1.406,-5.786 2.813,-11.572 4.219,-17.359Z" style="fill:#116582;fill-opacity:0.33;"/><path d="M3246.487,3225.563c2.355,6.14 2.709,5.098 2.425,12.667l-2.425,-12.667Z" style="fill:#106783;fill-opacity:0.33;"/><path d="M1836.418,1698.833c-0.322,4.275 -0.643,8.551 -0.965,12.826c0.322,-4.275 0.643,-8.551 0.965,-12.826Z" style="fill:#864809;fill-opacity:0.38;"/><path d="M1837.624,1991.049l-1.093,13.073c-0.908,-7.167 -0.851,-6.42 1.093,-13.073Z" style="fill:#7b4e09;fill-opacity:0.39;"/></g><g><g><path d="M2838.728,3192.151l363.782,0l-196.638,-184.556" style="fill:none;stroke:#1167b1;stroke-width:120.83px;"/><path d="M3002.769,3381.835l199.742,-189.684" style="fill:none;stroke:#1167b1;stroke-width:120.83px;"/></g></g></svg>