<?xml version="1.0" encoding="UTF-8" standalone="no"?>
<!DOCTYPE svg PUBLIC "-//W3C//DTD SVG 1.1//EN" "http://www.w3.org/Graphics/SVG/1.1/DTD/svg11.dtd">
<svg width="100%" height="100%" viewBox="0 0 1545 2057" version="1.1" xmlns="http://www.w3.org/2000/svg" xmlns:xlink="http://www.w3.org/1999/xlink" xml:space="preserve" xmlns:serif="http://www.serif.com/" style="fill-rule:evenodd;clip-rule:evenodd;stroke-linecap:round;stroke-linejoin:round;stroke-miterlimit:1.5;">
    <g transform="matrix(1,0,0,1,-1840.44472,-1645.813091)">
        <g transform="matrix(1,0,0,1,-1450.032089,-521.078852)">
            <path d="M3351.81,2222.532C3431.84,2158.094 3440.569,2167.598 3735.389,2167.149C4294.996,2166.297 4294.62,2173.181 4298.106,2174.194C4323.016,2181.427 4328.701,2183.077 4536.742,2393.692C4810.729,2671.069 4830.382,2667.576 4834.393,2758.785C4834.814,2768.358 4834.438,4007.823 4834.317,4015.024C4831.685,4170.706 4701.013,4213.883 4668.614,4218.398C4598.126,4228.221 4597.97,4221.519 3779.007,4221.091C3493.32,4220.942 3369.531,4244.626 3305.657,4101.482C3288.232,4062.433 3290.142,4060.552 3291.003,2758.781C3291.295,2318.234 3281.358,2308.027 3351.811,2222.533L3351.81,2222.532ZM4386.138,2374.165C4344.213,2331.553 4344.665,2331.636 4340.859,2328.144C4321.037,2309.959 4332.307,2567.815 4333.218,2588.644C4337.485,2686.28 4455.741,2662.286 4651.416,2663.399C4698.488,2663.667 4647.542,2638.177 4386.138,2374.165ZM4285.708,2701.417C4214.134,2609.575 4245.666,2558.257 4239.587,2270.333C4239.295,2256.496 4229.735,2260.782 3765.916,2260.412C3498.052,2260.198 3385.859,2237.365 3384.231,2370.566C3384.012,2388.507 3382.951,3977.301 3383.25,4010.659C3383.974,4091.226 3438.56,4126.91 3495.489,4126.931C4662.191,4127.36 4662.48,4122.785 4669.046,4120.212C4752.396,4087.539 4739.267,4033.876 4739.165,3727.14C4738.845,2765.405 4742.567,2755.973 4729.839,2755.817C4402.845,2751.807 4369.588,2777.447 4285.707,2701.417L4285.708,2701.417Z" style="fill:rgb(45,52,62);"/>
        </g>
        <g transform="matrix(1,0,0,1,-1450.032089,-521.078852)">
            <path d="M4570.995,3220.844C4520.623,3401.297 4445.907,3404.529 4210.847,3402.262C4175.867,3401.925 4182.97,3382.911 4182.893,3094.664C4182.862,2978.514 4176.02,2921.372 4202.194,2920.879C4374.507,2917.635 4606.796,2891.923 4570.994,3220.844L4570.995,3220.844ZM4474.657,3111.68C4445.76,3002.942 4385.514,3008.781 4289.427,3009.224C4271.902,3009.305 4277.607,3054.754 4277.593,3068.476C4277.345,3304.312 4275.372,3312.687 4289.353,3312.884C4432.123,3314.898 4490.563,3293.85 4474.658,3111.679L4474.657,3111.68Z" style="fill:rgb(45,52,62);"/>
        </g>
        <g transform="matrix(1,0,0,1,-1450.032089,-521.078852)">
            <path d="M3710.415,3095.515C3710.942,3119.138 3716.633,3374.288 3708.299,3390.866C3699.291,3408.786 3616.918,3414.029 3616.575,3378.203C3616.231,3342.291 3612.407,2942.958 3622.618,2929.323C3623.881,2927.637 3703.72,2893.904 3733.395,2947.51C3840.792,3141.515 3843.831,3175.777 3858.382,3147.481C3973.828,2922.974 3980.017,2920.986 4001.475,2920.546C4007.789,2920.416 4074.468,2919.049 4079.351,2933.485C4079.844,2934.942 4087.563,3383.716 4076.038,3396.016C4075.324,3396.778 3988.432,3429.044 3987.866,3369.456C3985.491,3119.373 3991.589,3076.677 3977.859,3106.403C3974.043,3114.664 3881.208,3280.979 3874.037,3285.272C3862.382,3292.25 3827.454,3291.727 3820.323,3280.52C3715.647,3115.997 3727.776,3108.843 3716.755,3095.993C3715.375,3094.384 3711.795,3097.123 3710.415,3095.514L3710.415,3095.515Z" style="fill:rgb(45,52,62);"/>
        </g>
        <g transform="matrix(1,0,0,1,-1450.032089,-521.078852)">
            <path d="M4537.009,3622.463C4524.35,3678.534 4502.35,3667.865 4237.017,3667.856C3624.473,3667.834 3619.19,3670.04 3605.625,3652.049C3587.836,3628.455 3590.59,3578.976 3643.838,3576.316C3678.242,3574.597 4390.231,3576.071 4455.134,3576.205C4488.464,3576.274 4526.798,3565.421 4537.008,3622.463L4537.009,3622.463Z" style="fill:rgb(16,103,179);"/>
        </g>
        <g transform="matrix(1,0,0,1,-1450.032089,-521.078852)">
            <path d="M4194.282,3818.751C4184.627,3873.367 4162.252,3863.164 3870.606,3863.149C3659.409,3863.138 3587.212,3877.144 3596.158,3810.065C3602.284,3764.131 3623.608,3771.683 3975.294,3771.567C4158.811,3771.507 4180.401,3759.453 4194.282,3818.752L4194.282,3818.751Z" style="fill:rgb(16,102,180);"/>
        </g>
        <g transform="matrix(1,0,0,1,-748.944147,-1103.293852)">
            <path d="M2838.728,3192.151L3202.51,3192.151L3005.872,3007.595" style="fill:none;stroke:rgb(17,103,177);stroke-width:120.83px;"/>
            <path d="M3002.769,3381.835L3202.511,3192.151" style="fill:none;stroke:rgb(17,103,177);stroke-width:120.83px;"/>
        </g>
    </g>
</svg>
